<svg xmlns="http://www.w3.org/2000/svg" width="21" height="15.544" viewBox="549 19.779 21 15.544"><path d="m562.044 27.509-2.112 1.825a.662.662 0 0 1-.432.16.662.662 0 0 1-.432-.16l-2.113-1.825-6.714 7.415a2.626 2.626 0 0 0 1.236.394 2.605 2.605 0 0 0 .148.004h15.75c.51 0 .982-.149 1.384-.398l-6.715-7.415Zm-2.544.477 9.126-7.88a2.63 2.63 0 0 0-1.166-.326 2.494 2.494 0 0 0-.085-.001h-15.75a2.564 2.564 0 0 0-1.036.221 2.86 2.86 0 0 0-.214.105l9.125 7.88Zm10.237 5.85a2.504 2.504 0 0 0 .263-1.104V22.369c0-.507-.154-.976-.409-1.376l-6.559 5.663 6.63 7.322a2.854 2.854 0 0 0 .075-.142Zm-20.328-12.843c-.255.4-.41.869-.41 1.376v10.363a2.5 2.5 0 0 0 .264 1.104 2.829 2.829 0 0 0 .074.142l6.63-7.323-6.558-5.662Z" fill="rgba(0,0,0,1)" fill-rule="evenodd" data-name="Forma 1"/></svg>