<svg xmlns="http://www.w3.org/2000/svg" width="15.474" height="20.243" viewBox="551.947 17 15.474 20.243"><path d="M567.42 34.668a64.336 64.336 0 0 1 0-.08c0-.297.002-.076 0-.01a.463.463 0 0 1 0 .01 64.336 64.336 0 0 0 0 .08v.29a.131.131 0 0 1-.002.002c-.037.072-1.068 1.946-6.286 2.243a25.45 25.45 0 0 1-1.448.04 27.395 27.395 0 0 1-.549-.006c-6.112-.122-7.187-2.279-7.187-2.279a283.035 283.035 0 0 0 0-.099 160.888 160.888 0 0 0 0-.422 30.33 30.33 0 0 1 0 .02.425.425 0 0 0 0 .01c.002.029.005-.017.011-.364a34.769 34.769 0 0 1 .036-1.086c.157-3.127.815-4.478 3.513-5.293a17.387 17.387 0 0 1 1.933-.445.255.255 0 0 0 .003.005c.054.064.735.85 2.24.85 1.41 0 2.097-.69 2.222-.83a.595.595 0 0 0 .02-.025c3.971.714 5.077 1.77 5.381 4.832a26.376 26.376 0 0 1 .104 2.147 75.255 75.255 0 0 0 0 .03c.003.178.005.262.007.292a.314.314 0 0 0 0 .01.004.004 0 0 1 .001.004.094.094 0 0 0 0-.006m-7.735-7.688a3.922 3.922 0 0 0 3.311-2.036 5.63 5.63 0 0 0 .784-2.812 6.1 6.1 0 0 0 0-.102c0-2.668-.573-4.843-3.846-4.946a7.854 7.854 0 0 0-.25-.004c-3.493 0-4.095 2.216-4.095 4.95a5.666 5.666 0 0 0 .727 2.817c.618 1.077 1.582 1.844 2.696 2.066a3.431 3.431 0 0 0 .673.067Zm7.735 7.694v-.004" fill="rgba(0,0,0,1)" fill-rule="evenodd" data-name="Forma 1"/></svg>