<svg xmlns="http://www.w3.org/2000/svg" width="20.856" height="20.417" viewBox="549.072 16.591 20.856 20.417"><path d="m569.46 32.74-3.22-3.161c-.642-.627-1.705-.608-2.369.043l-1.622 1.592c-.103-.055-.209-.113-.32-.175-1.025-.557-2.428-1.32-3.903-2.77-1.48-1.451-2.26-2.83-2.829-3.836l-.174-.307 1.089-1.066.535-.526c.665-.653.683-1.695.043-2.324l-3.22-3.16c-.64-.629-1.704-.61-2.368.043l-.908.896.025.024a5.11 5.11 0 0 0-.748 1.295 5.286 5.286 0 0 0-.333 1.313c-.425 3.459 1.186 6.62 5.558 10.91 6.044 5.93 10.915 5.483 11.125 5.46a5.519 5.519 0 0 0 1.342-.33c.48-.184.927-.433 1.315-.73l.02.016.92-.883c.663-.653.682-1.695.042-2.325Z" fill="rgba(0,0,0,1)" fill-rule="evenodd" data-name="Forma 1"/></svg>